<?xml version="1.0" standalone="no"?><!DOCTYPE svg PUBLIC "-//W3C//DTD SVG 1.1//EN" "http://www.w3.org/Graphics/SVG/1.1/DTD/svg11.dtd"><svg t="1755256504932" class="icon" viewBox="0 0 1024 1024" version="1.1" xmlns="http://www.w3.org/2000/svg" p-id="5532" xmlns:xlink="http://www.w3.org/1999/xlink" width="200" height="200"><path d="M792.85 350.037H546.883v-95.061a131.413 131.413 0 0 0 86.801-123.733C633.685 58.88 575.283 0 503.467 0S373.248 58.88 373.248 131.243a131.413 131.413 0 0 0 86.801 123.733v95.061H214.084c-23.995 0-43.417 19.559-43.417 43.725v525.04c0 24.165 19.456 43.758 43.417 43.758H792.85c23.996 0 43.418-19.593 43.418-43.759V393.762c0-24.166-19.456-43.725-43.418-43.725zM402.192 525.04c31.915 0 57.856 26.18 57.856 58.334 0 32.153-25.941 58.334-57.856 58.334a58.163 58.163 0 0 1-57.89-58.368c0-32.12 25.941-58.3 57.89-58.3z m217.02 262.485H387.755a43.588 43.588 0 0 1-43.418-43.725c0-24.166 19.456-43.758 43.418-43.758h231.492c23.996 0 43.418 19.592 43.418 43.758 0 24.167-19.456 43.76-43.418 43.76zM604.74 641.707a58.163 58.163 0 0 1-57.856-58.368c0-32.12 25.942-58.3 57.856-58.3s57.89 26.18 57.89 58.334c0 32.153-25.94 58.334-57.89 58.334zM42.667 532.82C19.115 532.821 0 552.073 0 575.83v171.862c0 23.756 19.115 43.008 42.667 43.008h42.666V532.82H42.667z m938.666 0h-42.666V790.7h42.666c23.552 0 42.667-19.217 42.667-42.974V575.829c0-23.756-19.115-43.008-42.667-43.008z" fill="#FFFFFF" p-id="5533"></path></svg>